<svg id="Layer_1" enable-background="new 0 0 512 512" height="512" viewBox="0 0 512 512" width="512" xmlns="http://www.w3.org/2000/svg"><g><ellipse cx="343.656" cy="93.746" fill="#ffb200" rx="93.844" ry="93.746"/><path d="m343.656 0c-5.27 0-10.436.441-15.469 1.275 44.467 7.369 78.375 45.961 78.375 92.471s-33.908 85.103-78.375 92.471c5.033.834 10.199 1.275 15.469 1.275 51.828 0 93.844-41.972 93.844-93.746s-42.015-93.746-93.844-93.746z" fill="#ffa000"/><path d="m328.497 481.095h-61.993c-20.614 0-37.324-16.702-37.324-37.304v-27.473c0-75.835 21.318-89.606 57.754-117.869 38.708-30.027 60.209-77.127 57.53-126.027l-3.8-52.703c-.151-2.092-1.894-3.713-3.994-3.713h-245.902c-2.1 0-3.843 1.62-3.994 3.713l-3.8 52.703c-2.679 48.9 18.822 96 57.53 126.027 36.435 28.263 57.754 42.034 57.754 117.869v27.473c0 20.603-16.711 37.304-37.324 37.304h-61.994c-13.541 0-24.511 11.007-24.44 24.557.018 3.525 2.953 6.348 6.481 6.348h265.474c3.529 0 6.463-2.823 6.481-6.348.072-13.551-10.897-24.557-24.439-24.557z" fill="#bbf7ff"/><g fill="#8bf0ff"><path d="m255.996 298.448c-36.151 28.043-57.416 41.829-57.746 116.114.003.585.008 1.162.008 1.755v27.473c0 .103-.007.205-.008.308.167 20.46 16.806 36.996 37.317 36.996h30.938c-20.614 0-37.324-16.702-37.324-37.304v-27.473c0-75.835 21.318-89.606 57.754-117.869 38.708-30.027 60.209-77.127 57.53-126.027l-3.8-52.703c-.151-2.092-1.894-3.713-3.994-3.713h-27.211l4.068 56.416c2.677 48.9-18.824 96.001-57.532 126.027z"/><path d="m328.497 481.095h-30.937c13.498 0 24.44 10.936 24.44 24.427 0 3.578-2.902 6.478-6.482 6.478h30.938c3.58 0 6.482-2.9 6.482-6.478 0-13.491-10.943-24.427-24.441-24.427z"/></g><path d="m336.67 116.006h-84.189c10.067 41.291 47.501 71.878 92.025 71.484.003-.003.005-.004.007-.007.231-4.991.226-10.015-.05-15.061l-3.8-52.703c-.15-2.093-1.893-3.713-3.993-3.713z" fill="#f57f17"/><path d="m327.828 249.449c-25.676 48.861-75.633 78.365-114.108 78.365-38.476 0-88.436-29.501-114.111-78.365 0 0 17.886-27.756 52.727-27.756 32.005 0 67.966 34.263 95.89 40.18 36.996 7.838 79.602-12.424 79.602-12.424z" fill="#ffc328"/><ellipse cx="203.406" cy="210.157" fill="#f74f68" rx="46.406" ry="46.358"/><path d="m203.406 163.799c-5.425 0-10.629.939-15.469 2.648 18.022 6.365 30.938 23.527 30.938 43.71s-12.916 37.345-30.938 43.71c4.84 1.709 10.043 2.648 15.469 2.648 25.629 0 46.406-20.755 46.406-46.358.001-25.603-20.776-46.358-46.406-46.358z" fill="#e83a53"/><path d="m99.609 249.449c25.676 48.861 75.633 78.365 114.108 78.365 38.476 0 88.436-29.501 114.111-78.365 0 0-17.886-27.756-52.727-27.756-32.005 0-67.966 34.263-95.89 40.18-36.996 7.838-79.602-12.424-79.602-12.424z" fill="#ffd54f"/><path d="m327.828 249.449s-7.543-11.688-22.357-19.895c-9.352 26.89-26.335 50.944-49.475 68.895-13.289 10.308-24.563 18.693-33.528 28.862 37.015-4.004 81.591-32.626 105.36-77.862z" fill="#ffc328"/><g fill="#ffd54f"><path d="m344.688 23.92c-4.143 0-7.5 3.358-7.5 7.5v16.483c0 4.142 3.357 7.5 7.5 7.5s7.5-3.358 7.5-7.5v-16.483c0-4.142-3.358-7.5-7.5-7.5z"/><path d="m318.741 36.315c-2.073-3.586-6.66-4.812-10.246-2.741-3.586 2.073-4.813 6.66-2.74 10.247l8.25 14.274c1.39 2.404 3.909 3.749 6.5 3.749 1.273 0 2.564-.325 3.746-1.008 3.586-2.073 4.813-6.66 2.74-10.247z"/><path d="m375.46 134.453c-2.073-3.586-6.661-4.812-10.246-2.741-3.586 2.073-4.813 6.66-2.74 10.247l8.25 14.274c1.39 2.404 3.909 3.749 6.5 3.749 1.273 0 2.564-.325 3.746-1.008 3.586-2.073 4.813-6.66 2.74-10.247z"/><path d="m306.52 65.504-14.29-8.241c-3.59-2.069-8.175-.838-10.244 2.75s-.838 8.175 2.75 10.244l14.29 8.241c1.181.681 2.469 1.004 3.74 1.004 2.593 0 5.115-1.347 6.504-3.754 2.069-3.588.837-8.174-2.75-10.244z"/><path d="m404.759 122.165-14.289-8.242c-3.589-2.071-8.175-.839-10.244 2.75-2.069 3.588-.838 8.174 2.75 10.244l14.289 8.242c1.181.681 2.469 1.005 3.74 1.005 2.593 0 5.115-1.347 6.504-3.754 2.069-3.589.838-8.176-2.75-10.245z"/><path d="m296.26 88.648h-16.5c-4.143 0-7.5 3.358-7.5 7.5s3.357 7.5 7.5 7.5h16.5c4.143 0 7.5-3.358 7.5-7.5s-3.358-7.5-7.5-7.5z"/><path d="m409.697 88.648h-16.5c-4.143 0-7.5 3.358-7.5 7.5s3.357 7.5 7.5 7.5h16.5c4.143 0 7.5-3.358 7.5-7.5s-3.357-7.5-7.5-7.5z"/><path d="m380.159 75.641c1.389 2.408 3.911 3.754 6.504 3.754 1.271 0 2.56-.324 3.74-1.004l14.289-8.241c3.588-2.07 4.819-6.656 2.75-10.244-2.07-3.589-6.657-4.819-10.244-2.75l-14.289 8.241c-3.588 2.07-4.819 6.656-2.75 10.244z"/><path d="m365.099 60.65c1.182.683 2.473 1.008 3.746 1.008 2.591 0 5.111-1.344 6.5-3.749l8.25-14.275c2.073-3.586.846-8.174-2.74-10.247s-8.175-.845-10.246 2.741l-8.25 14.275c-2.074 3.587-.846 8.175 2.74 10.247z"/></g></g></svg>